{
    "asset" : {
        "generator" : "Khronos glTF Blender I/O v1.5.17",
        "version" : "2.0"
    },
    "scene" : 0,
    "scenes" : [
        {
            "name" : "Scene",
            "nodes" : [
                2
            ]
        }
    ],
    "nodes" : [
        {
            "name" : "Object03",
            "rotation" : [
                0.5000001192092896,
                0.4999999403953552,
                -0.5000000596046448,
                0.4999999403953552
            ],
            "translation" : [
                0,
                0,
                2.3199562271258856e-09
            ]
        },
        {
            "mesh" : 0,
            "name" : "R97_fiera_m00_wp.mo",
            "skin" : 0
        },
        {
            "children" : [
                1,
                0
            ],
            "name" : "R97_fiera_m00_wp.ao"
        }
    ],
    "materials" : [
        {
            "alphaCutoff" : 0.5,
            "alphaMode" : "MASK",
            "doubleSided" : true,
            "name" : "R97_fiera_t00",
            "pbrMetallicRoughness" : {
                "baseColorTexture" : {
                    "index" : 0
                },
                "metallicFactor" : 0,
                "roughnessFactor" : 0.5
            }
        }
    ],
    "meshes" : [
        {
            "name" : "R97_fiera_m00_wp.md",
            "primitives" : [
                {
                    "attributes" : {
                        "POSITION" : 0,
                        "NORMAL" : 1,
                        "TEXCOORD_0" : 2,
                        "JOINTS_0" : 3,
                        "WEIGHTS_0" : 4
                    },
                    "indices" : 5,
                    "material" : 0
                }
            ]
        }
    ],
    "textures" : [
        {
            "sampler" : 0,
            "source" : 0
        }
    ],
    "images" : [
        {
            "bufferView" : 6,
            "mimeType" : "image/png",
            "name" : "R97_fiera_t00_mk"
        }
    ],
    "skins" : [
        {
            "inverseBindMatrices" : 6,
            "joints" : [
                0
            ],
            "name" : "R97_fiera_m00_wp.ao"
        }
    ],
    "accessors" : [
        {
            "bufferView" : 0,
            "componentType" : 5126,
            "count" : 3534,
            "max" : [
                0.29905441403388977,
                0.009056812152266502,
                0.050422996282577515
            ],
            "min" : [
                -0.17880301177501678,
                -0.009056772105395794,
                -0.05042298883199692
            ],
            "type" : "VEC3"
        },
        {
            "bufferView" : 1,
            "componentType" : 5126,
            "count" : 3534,
            "type" : "VEC3"
        },
        {
            "bufferView" : 2,
            "componentType" : 5126,
            "count" : 3534,
            "type" : "VEC2"
        },
        {
            "bufferView" : 3,
            "componentType" : 5121,
            "count" : 3534,
            "type" : "VEC4"
        },
        {
            "bufferView" : 4,
            "componentType" : 5126,
            "count" : 3534,
            "type" : "VEC4"
        },
        {
            "bufferView" : 5,
            "componentType" : 5123,
            "count" : 3534,
            "type" : "SCALAR"
        },
        {
            "bufferView" : 7,
            "componentType" : 5126,
            "count" : 1,
            "type" : "MAT4"
        }
    ],
    "bufferViews" : [
        {
            "buffer" : 0,
            "byteLength" : 42408,
            "byteOffset" : 0
        },
        {
            "buffer" : 0,
            "byteLength" : 42408,
            "byteOffset" : 42408
        },
        {
            "buffer" : 0,
            "byteLength" : 28272,
            "byteOffset" : 84816
        },
        {
            "buffer" : 0,
            "byteLength" : 14136,
            "byteOffset" : 113088
        },
        {
            "buffer" : 0,
            "byteLength" : 56544,
            "byteOffset" : 127224
        },
        {
            "buffer" : 0,
            "byteLength" : 7068,
            "byteOffset" : 183768
        },
        {
            "buffer" : 0,
            "byteLength" : 392911,
            "byteOffset" : 190836
        },
        {
            "buffer" : 0,
            "byteLength" : 64,
            "byteOffset" : 583748
        }
    ],
    "samplers" : [
        {
            "magFilter" : 9729,
            "minFilter" : 9987
        }
    ],
    "buffers" : [
        {
            "byteLength" : 583812,
            "uri" : "data:application/octet-stream;base64,"
        }
    ]
}
