{
    "asset" : {
        "generator" : "Khronos glTF Blender I/O v1.5.17",
        "version" : "2.0"
    },
    "scene" : 0,
    "scenes" : [
        {
            "name" : "Scene",
            "nodes" : [
                2
            ]
        }
    ],
    "nodes" : [
        {
            "name" : "Object04",
            "rotation" : [
                -0.5,
                -0.5,
                -0.5000000596046448,
                0.4999999403953552
            ],
            "translation" : [
                0,
                8.19563861220729e-10,
                0
            ]
        },
        {
            "mesh" : 0,
            "name" : "R97_flugel_m00_wp.mo",
            "skin" : 0
        },
        {
            "children" : [
                1,
                0
            ],
            "name" : "R97_flugel_m00_wp.ao"
        }
    ],
    "materials" : [
        {
            "alphaCutoff" : 0.5,
            "alphaMode" : "MASK",
            "doubleSided" : true,
            "name" : "R97_flugel_t00",
            "pbrMetallicRoughness" : {
                "baseColorTexture" : {
                    "index" : 0
                },
                "metallicFactor" : 0,
                "roughnessFactor" : 0.5
            }
        }
    ],
    "meshes" : [
        {
            "name" : "R97_flugel_m00_wp.md",
            "primitives" : [
                {
                    "attributes" : {
                        "POSITION" : 0,
                        "NORMAL" : 1,
                        "TEXCOORD_0" : 2,
                        "JOINTS_0" : 3,
                        "WEIGHTS_0" : 4
                    },
                    "indices" : 5,
                    "material" : 0
                }
            ]
        }
    ],
    "textures" : [
        {
            "sampler" : 0,
            "source" : 0
        }
    ],
    "images" : [
        {
            "bufferView" : 6,
            "mimeType" : "image/png",
            "name" : "R97_flugel_t00_mk"
        }
    ],
    "skins" : [
        {
            "inverseBindMatrices" : 6,
            "joints" : [
                0
            ],
            "name" : "R97_flugel_m00_wp.ao"
        }
    ],
    "accessors" : [
        {
            "bufferView" : 0,
            "componentType" : 5126,
            "count" : 3348,
            "max" : [
                0.2676753103733063,
                0.01650465652346611,
                0.05422062799334526
            ],
            "min" : [
                -0.10976270586252213,
                -0.016504663974046707,
                -0.055322643369436264
            ],
            "type" : "VEC3"
        },
        {
            "bufferView" : 1,
            "componentType" : 5126,
            "count" : 3348,
            "type" : "VEC3"
        },
        {
            "bufferView" : 2,
            "componentType" : 5126,
            "count" : 3348,
            "type" : "VEC2"
        },
        {
            "bufferView" : 3,
            "componentType" : 5121,
            "count" : 3348,
            "type" : "VEC4"
        },
        {
            "bufferView" : 4,
            "componentType" : 5126,
            "count" : 3348,
            "type" : "VEC4"
        },
        {
            "bufferView" : 5,
            "componentType" : 5123,
            "count" : 3348,
            "type" : "SCALAR"
        },
        {
            "bufferView" : 7,
            "componentType" : 5126,
            "count" : 1,
            "type" : "MAT4"
        }
    ],
    "bufferViews" : [
        {
            "buffer" : 0,
            "byteLength" : 40176,
            "byteOffset" : 0
        },
        {
            "buffer" : 0,
            "byteLength" : 40176,
            "byteOffset" : 40176
        },
        {
            "buffer" : 0,
            "byteLength" : 26784,
            "byteOffset" : 80352
        },
        {
            "buffer" : 0,
            "byteLength" : 13392,
            "byteOffset" : 107136
        },
        {
            "buffer" : 0,
            "byteLength" : 53568,
            "byteOffset" : 120528
        },
        {
            "buffer" : 0,
            "byteLength" : 6696,
            "byteOffset" : 174096
        },
        {
            "buffer" : 0,
            "byteLength" : 258608,
            "byteOffset" : 180792
        },
        {
            "buffer" : 0,
            "byteLength" : 64,
            "byteOffset" : 439400
        }
    ],
    "samplers" : [
        {
            "magFilter" : 9729,
            "minFilter" : 9987
        }
    ],
    "buffers" : [
        {
            "byteLength" : 439464,
            "uri" : "data:application/octet-stream;base64,"
        }
    ]
}
