{
    "asset" : {
        "generator" : "Khronos glTF Blender I/O v1.5.17",
        "version" : "2.0"
    },
    "scene" : 0,
    "scenes" : [
        {
            "name" : "Scene",
            "nodes" : [
                2
            ]
        }
    ],
    "nodes" : [
        {
            "name" : "slash_saw_m00_wp02",
            "rotation" : [
                -0.4996209740638733,
                -0.5003787279129028,
                -0.5003788471221924,
                0.49962088465690613
            ],
            "translation" : [
                0.12723687291145325,
                0.00043924234341830015,
                -0.00020249016233719885
            ]
        },
        {
            "mesh" : 0,
            "name" : "R97_IgusBlade_m00_wp.mo",
            "skin" : 0
        },
        {
            "children" : [
                1,
                0
            ],
            "name" : "R97_IgusBlade_m00_wp.ao"
        }
    ],
    "materials" : [
        {
            "alphaCutoff" : 0.5,
            "alphaMode" : "MASK",
            "doubleSided" : true,
            "name" : "R97_IgusBlade_t10",
            "pbrMetallicRoughness" : {
                "baseColorTexture" : {
                    "index" : 0
                },
                "metallicFactor" : 0,
                "roughnessFactor" : 0.5
            }
        }
    ],
    "meshes" : [
        {
            "name" : "R97_IgusBlade_m00_wp.md",
            "primitives" : [
                {
                    "attributes" : {
                        "POSITION" : 0,
                        "NORMAL" : 1,
                        "TEXCOORD_0" : 2,
                        "JOINTS_0" : 3,
                        "WEIGHTS_0" : 4
                    },
                    "indices" : 5,
                    "material" : 0
                }
            ]
        }
    ],
    "textures" : [
        {
            "sampler" : 0,
            "source" : 0
        }
    ],
    "images" : [
        {
            "bufferView" : 6,
            "mimeType" : "image/png",
            "name" : "R97_IgusBlade_t10_mk"
        }
    ],
    "skins" : [
        {
            "inverseBindMatrices" : 6,
            "joints" : [
                0
            ],
            "name" : "R97_IgusBlade_m00_wp.ao"
        }
    ],
    "accessors" : [
        {
            "bufferView" : 0,
            "componentType" : 5126,
            "count" : 2742,
            "max" : [
                0.4021686911582947,
                0.021571476012468338,
                0.07567226141691208
            ],
            "min" : [
                -0.14769500494003296,
                -0.020692862570285797,
                -0.07620608061552048
            ],
            "type" : "VEC3"
        },
        {
            "bufferView" : 1,
            "componentType" : 5126,
            "count" : 2742,
            "type" : "VEC3"
        },
        {
            "bufferView" : 2,
            "componentType" : 5126,
            "count" : 2742,
            "type" : "VEC2"
        },
        {
            "bufferView" : 3,
            "componentType" : 5121,
            "count" : 2742,
            "type" : "VEC4"
        },
        {
            "bufferView" : 4,
            "componentType" : 5126,
            "count" : 2742,
            "type" : "VEC4"
        },
        {
            "bufferView" : 5,
            "componentType" : 5123,
            "count" : 2760,
            "type" : "SCALAR"
        },
        {
            "bufferView" : 7,
            "componentType" : 5126,
            "count" : 1,
            "type" : "MAT4"
        }
    ],
    "bufferViews" : [
        {
            "buffer" : 0,
            "byteLength" : 32904,
            "byteOffset" : 0
        },
        {
            "buffer" : 0,
            "byteLength" : 32904,
            "byteOffset" : 32904
        },
        {
            "buffer" : 0,
            "byteLength" : 21936,
            "byteOffset" : 65808
        },
        {
            "buffer" : 0,
            "byteLength" : 10968,
            "byteOffset" : 87744
        },
        {
            "buffer" : 0,
            "byteLength" : 43872,
            "byteOffset" : 98712
        },
        {
            "buffer" : 0,
            "byteLength" : 5520,
            "byteOffset" : 142584
        },
        {
            "buffer" : 0,
            "byteLength" : 271067,
            "byteOffset" : 148104
        },
        {
            "buffer" : 0,
            "byteLength" : 64,
            "byteOffset" : 419172
        }
    ],
    "samplers" : [
        {
            "magFilter" : 9729,
            "minFilter" : 9987
        }
    ],
    "buffers" : [
        {
            "byteLength" : 419236,
            "uri" : "data:application/octet-stream;base64,"
        }
    ]
}
