{
    "asset" : {
        "generator" : "Khronos glTF Blender I/O v1.5.17",
        "version" : "2.0"
    },
    "scene" : 0,
    "scenes" : [
        {
            "name" : "Scene",
            "nodes" : [
                2
            ]
        }
    ],
    "nodes" : [
        {
            "name" : "Object01",
            "rotation" : [
                9.834277392428703e-08,
                0.7071070671081543,
                -1.7561181664405012e-07,
                0.7071064710617065
            ],
            "scale" : [
                1,
                0.9999999403953552,
                1
            ],
            "translation" : [
                0.3441345989704132,
                -5.914688154007308e-05,
                -0.16145376861095428
            ]
        },
        {
            "mesh" : 0,
            "name" : "antaras_cutter_m00.mo",
            "skin" : 0
        },
        {
            "children" : [
                1,
                0
            ],
            "name" : "antaras_cutter_m00.ao"
        }
    ],
    "materials" : [
        {
            "doubleSided" : true,
            "name" : "antaras_cutter_t00",
            "pbrMetallicRoughness" : {
                "baseColorTexture" : {
                    "index" : 0
                },
                "metallicFactor" : 0,
                "roughnessFactor" : 0.5
            }
        }
    ],
    "meshes" : [
        {
            "name" : "antaras_cutter_m00.md",
            "primitives" : [
                {
                    "attributes" : {
                        "POSITION" : 0,
                        "NORMAL" : 1,
                        "TEXCOORD_0" : 2,
                        "JOINTS_0" : 3,
                        "WEIGHTS_0" : 4
                    },
                    "indices" : 5,
                    "material" : 0
                }
            ]
        }
    ],
    "textures" : [
        {
            "sampler" : 0,
            "source" : 0
        }
    ],
    "images" : [
        {
            "bufferView" : 6,
            "mimeType" : "image/png",
            "name" : "antaras_cutter_t00_ori"
        }
    ],
    "skins" : [
        {
            "inverseBindMatrices" : 6,
            "joints" : [
                0
            ],
            "name" : "antaras_cutter_m00.ao"
        }
    ],
    "accessors" : [
        {
            "bufferView" : 0,
            "componentType" : 5126,
            "count" : 8400,
            "max" : [
                0.29367396235466003,
                0.017850345000624657,
                0.035010792315006256
            ],
            "min" : [
                -0.08604836463928223,
                -0.017476437613368034,
                -0.03485516831278801
            ],
            "type" : "VEC3"
        },
        {
            "bufferView" : 1,
            "componentType" : 5126,
            "count" : 8400,
            "type" : "VEC3"
        },
        {
            "bufferView" : 2,
            "componentType" : 5126,
            "count" : 8400,
            "type" : "VEC2"
        },
        {
            "bufferView" : 3,
            "componentType" : 5121,
            "count" : 8400,
            "type" : "VEC4"
        },
        {
            "bufferView" : 4,
            "componentType" : 5126,
            "count" : 8400,
            "type" : "VEC4"
        },
        {
            "bufferView" : 5,
            "componentType" : 5123,
            "count" : 8400,
            "type" : "SCALAR"
        },
        {
            "bufferView" : 7,
            "componentType" : 5126,
            "count" : 1,
            "type" : "MAT4"
        }
    ],
    "bufferViews" : [
        {
            "buffer" : 0,
            "byteLength" : 100800,
            "byteOffset" : 0
        },
        {
            "buffer" : 0,
            "byteLength" : 100800,
            "byteOffset" : 100800
        },
        {
            "buffer" : 0,
            "byteLength" : 67200,
            "byteOffset" : 201600
        },
        {
            "buffer" : 0,
            "byteLength" : 33600,
            "byteOffset" : 268800
        },
        {
            "buffer" : 0,
            "byteLength" : 134400,
            "byteOffset" : 302400
        },
        {
            "buffer" : 0,
            "byteLength" : 16800,
            "byteOffset" : 436800
        },
        {
            "buffer" : 0,
            "byteLength" : 278475,
            "byteOffset" : 453600
        },
        {
            "buffer" : 0,
            "byteLength" : 64,
            "byteOffset" : 732076
        }
    ],
    "samplers" : [
        {
            "magFilter" : 9729,
            "minFilter" : 9987
        }
    ],
    "buffers" : [
        {
            "byteLength" : 732140,
            "uri" : "data:application/octet-stream;base64,"
        }
    ]
}
